HIERARCHY
ROOT Hips
{
	OFFSET 0.00000 0.00000 0.00000
	CHANNELS 6 Xposition Yposition Zposition Zrotation Yrotation Xrotation 
	JOINT LHipJoint
	{
		OFFSET 0 0 0
		CHANNELS 3 Zrotation Yrotation Xrotation
		JOINT LeftUpLeg
		{
			OFFSET 1.75344 -1.53157 0.77399
			CHANNELS 3 Zrotation Yrotation Xrotation
			JOINT LeftLeg
			{
				OFFSET 2.25415 -6.19323 0.00000
				CHANNELS 3 Zrotation Yrotation Xrotation
				JOINT LeftFoot
				{
					OFFSET 2.30342 -6.32861 0.00000
					CHANNELS 3 Zrotation Yrotation Xrotation
					JOINT LeftToeBase
					{
						OFFSET 0.10958 -0.30108 1.49206
						CHANNELS 3 Zrotation Yrotation Xrotation
						End Site
						{
							OFFSET 0.00000 -0.00000 0.77783
						}
					}
				}
			}
		}
	}
	JOINT RHipJoint
	{
		OFFSET 0 0 0
		CHANNELS 3 Zrotation Yrotation Xrotation
		JOINT RightUpLeg
		{
			OFFSET -1.81912 -1.53156 0.77399
			CHANNELS 3 Zrotation Yrotation Xrotation
			JOINT RightLeg
			{
				OFFSET -2.22882 -6.12365 0.00000
				CHANNELS 3 Zrotation Yrotation Xrotation
				JOINT RightFoot
				{
					OFFSET -2.21943 -6.09785 0.00000
					CHANNELS 3 Zrotation Yrotation Xrotation
					JOINT RightToeBase
					{
						OFFSET -0.18931 -0.52012 1.59379
						CHANNELS 3 Zrotation Yrotation Xrotation
						End Site
						{
							OFFSET -0.00000 -0.00000 0.84686
						}
					}
				}
			}
		}
	}
	JOINT LowerBack
	{
		OFFSET 0 0 0
		CHANNELS 3 Zrotation Yrotation Xrotation
		JOINT Spine
		{
			OFFSET -0.00200 1.66634 -0.14248
			CHANNELS 3 Zrotation Yrotation Xrotation
			JOINT Spine1
			{
				OFFSET -0.00875 1.64542 0.09514
				CHANNELS 3 Zrotation Yrotation Xrotation
				JOINT Neck
				{
					OFFSET 0 0 0
					CHANNELS 3 Zrotation Yrotation Xrotation
					JOINT Neck1
					{
						OFFSET 0.02257 1.59605 0.00839
						CHANNELS 3 Zrotation Yrotation Xrotation
						JOINT Head
						{
							OFFSET -0.10214 1.57530 -0.23335
							CHANNELS 3 Zrotation Yrotation Xrotation
							End Site
							{
								OFFSET -0.03588 1.60717 -0.08062
							}
						}
					}
				}
				JOINT LeftShoulder
				{
					OFFSET 0 0 0
					CHANNELS 3 Zrotation Yrotation Xrotation
					JOINT LeftArm
					{
						OFFSET 2.54983 1.10186 0.40078
						CHANNELS 3 Zrotation Yrotation Xrotation
						JOINT LeftForeArm
						{
							OFFSET 4.28840 -0.00000 0.00000
							CHANNELS 3 Zrotation Yrotation Xrotation
							JOINT LeftHand
							{
								OFFSET 3.06552 -0.00000 -0.00000
								CHANNELS 3 Zrotation Yrotation Xrotation
								JOINT LeftFingerBase
								{
									OFFSET 0 0 0
									CHANNELS 3 Zrotation Yrotation Xrotation
									JOINT LeftHandIndex1
									{
										OFFSET 0.75304 -0.00000 0.00000
										CHANNELS 3 Zrotation Yrotation Xrotation
										End Site
										{
											OFFSET 0.60712 -0.00000 0.00000
										}
									}
								}
								JOINT LThumb
								{
									OFFSET 0 0 0
									CHANNELS 3 Zrotation Yrotation Xrotation
									End Site
									{
										OFFSET 0.61639 -0.00000 0.61639
									}
								}
							}
						}
					}
				}
				JOINT RightShoulder
				{
					OFFSET 0 0 0
					CHANNELS 3 Zrotation Yrotation Xrotation
					JOINT RightArm
					{
						OFFSET -2.60909 1.35448 0.21802
						CHANNELS 3 Zrotation Yrotation Xrotation
						JOINT RightForeArm
						{
							OFFSET -4.52172 -0.00000 -0.00000
							CHANNELS 3 Zrotation Yrotation Xrotation
							JOINT RightHand
							{
								OFFSET -2.89140 -0.00000 0.00000
								CHANNELS 3 Zrotation Yrotation Xrotation
								JOINT RightFingerBase
								{
									OFFSET 0 0 0
									CHANNELS 3 Zrotation Yrotation Xrotation
									JOINT RightHandIndex1
									{
										OFFSET -0.68054 -0.00000 0.00000
										CHANNELS 3 Zrotation Yrotation Xrotation
										End Site
										{
											OFFSET -0.54867 -0.00000 0.00000
										}
									}
								}
								JOINT RThumb
								{
									OFFSET 0 0 0
									CHANNELS 3 Zrotation Yrotation Xrotation
									End Site
									{
										OFFSET -0.55705 -0.00000 0.55705
									}
								}
							}
						}
					}
				}
			}
		}
	}
}
MOTION
Frames: 13
Frame Time: .0083333
8.7548 15.061 41.9852 0 0 0 0 0 0 -21 0 0 0 0 0 0 0 0 0 0 0 0 0 0 21 0 0 0 0 0 0 0 0 0 0 0 0 0 0 0 0 0 0 0 0 0 0 -16 0 0 21 0 0 11 0 0 0 -8 0 0 0 0 0 0 0 0 0 0 0 0 0 0 0 0 0 0 0 0 8 0 0 0 0 0 0 0 0 0 0 0 0 0 0 0 0 0
8.7548 15.0610 41.9852 -177.9590 -15.7752 177.2540 0.0000 0.0000 0.0000 -25.1334 -29.0132 0.9200 3.1312 10.9045 31.9585 1.8562 1.9109 -26.4959 2.3598 -9.5783 -27.6218 0.0000 0.0000 0.0000 31.4145 13.6950 4.4640 -1.8034 -8.4441 24.0712 -0.9418 -26.7005 -41.9033 -2.0061 -8.8788 25.4170 5.0491 1.1846 7.0008 0.2439 2.0710 -3.1591 -2.8441 0.7710 -7.0892 11.5720 18.9745 -2.1708 -7.6093 25.5623 7.8649 -2.1977 12.6187 5.1286 0.0000 -0.0000 0.0000 -86.6412 11.1027 35.1608 20.0300 -30.6785 -5.5467 -0.0000 -0.0000 20.6319 11.5625 -34.5176 -6.6129 -7.1250 0.0000 -0.0000 -11.5929 -4.4554 12.7129 0.0000 -0.0000 0.0000 84.8860 -14.1464 37.5686 -22.3021 33.3168 -6.7510 0.0000 -0.0000 -10.8017 36.6432 -62.4105 -33.3950 7.1250 -0.0000 -0.0000 -152.0909 -8.9545 26.7166
8.7555 15.0181 41.9957 -184.3160 -14.6843 175.8790 0.0000 0.0000 0.0000 -33.2200 -25.5953 6.5899 2.1424 9.1567 26.2867 1.4086 3.5020 -23.9202 2.3448 -9.5502 -27.5320 0.0000 0.0000 0.0000 25.3630 13.7125 4.8853 -2.7955 -10.3564 30.1388 -2.2152 -24.2026 -44.6483 -1.8114 -8.4617 24.1254 -1.1086 1.9228 10.2668 -1.3626 2.2910 -2.2657 -1.2108 1.1212 -8.1612 9.5259 19.1651 -2.5565 -5.1356 25.6247 7.6561 -1.3405 12.7129 4.5441 0.0000 0.0000 0.0000 -86.5812 11.2222 36.5060 20.7818 -31.5727 -5.9353 -0.0000 -0.0000 19.1478 8.5699 -28.6039 -4.1266 -7.1250 0.0000 -0.0000 -12.8844 1.7308 12.8208 0.0000 0.0000 0.0000 84.7136 -14.5189 39.6468 -21.5609 32.4773 -6.3485 0.0000 -0.0000 -6.4052 30.5323 -59.4549 -26.9286 7.1250 -0.0000 -0.0000 -27.2183 8.1372 -153.6456
8.7483 14.9679 41.9795 -188.7090 -13.6367 175.1600 0.0000 0.0000 0.0000 -39.0437 -24.9860 8.1430 2.3910 9.6370 27.8091 1.5255 4.9761 -25.5834 2.2978 -9.4606 -27.2472 0.0000 0.0000 0.0000 20.4775 12.2864 7.1331 -2.5025 -9.8424 28.4679 -1.8452 -23.5359 -42.4768 -1.4673 -7.6551 21.6714 -5.3935 2.8170 11.5626 -2.4506 2.6521 -1.6567 -0.0671 1.4223 -8.4169 10.7061 18.7993 -1.5191 -7.3124 25.3110 6.3816 -2.2166 12.5348 4.3966 -0.0000 0.0000 0.0000 -86.4876 11.0806 35.5536 20.2570 -30.9508 -5.6629 -0.0000 -0.0000 19.8599 8.0919 -32.6126 -4.3819 -7.1250 0.0000 -0.0000 -13.3559 -2.1147 14.2262 -0.0000 0.0000 0.0000 84.5888 -14.9095 41.5893 -20.8146 31.6112 -5.9524 0.0000 -0.0000 -1.6449 24.4935 -57.0730 -20.9271 7.1250 -0.0000 -0.0000 -26.2555 10.3104 -156.1363
8.8237 15.1161 42.0726 -178.2390 -12.2295 178.6820 0.0000 0.0000 0.0000 -23.7155 -26.6901 -0.1818 2.4578 9.7607 28.2052 1.5077 3.1288 -24.5029 2.3269 -9.5161 -27.4235 0.0000 0.0000 0.0000 30.8972 16.9942 1.3564 -2.3865 -9.6285 27.7818 -1.0788 -25.6766 -41.3505 -1.5609 -7.8843 22.3631 3.8060 2.5155 7.7642 0.3096 3.7773 -3.8530 -2.3530 1.6218 -8.2091 9.7801 18.4772 -0.4210 -7.4724 24.8917 4.2022 -2.4452 12.3667 3.4313 -0.0000 -0.0000 0.0000 -86.4187 10.9844 35.1084 20.0260 -30.6737 -5.5446 -0.0000 -0.0000 20.3565 8.1877 -34.2648 -4.6314 -7.1250 0.0000 -0.0000 -13.4087 -3.7306 14.6490 -0.0000 -0.0000 0.0000 84.4574 -15.2720 43.5791 -20.1109 30.7757 -5.5880 0.0000 0.0000 3.0932 17.5698 -55.3506 -14.6000 7.1250 -0.0000 -0.0000 -24.4516 11.4190 -158.7904
8.8268 15.1279 42.0694 -178.2630 -12.0489 179.2670 0.0000 0.0000 0.0000 -23.3691 -26.8008 -1.3727 2.6176 10.0487 29.1347 1.5743 2.9292 -24.9103 2.4042 -9.6617 -27.8879 0.0000 0.0000 0.0000 30.6849 17.1490 1.3179 -2.1895 -9.2502 26.5811 -0.8411 -25.9268 -40.5612 -1.5812 -7.9331 22.5110 3.6932 2.6251 7.0901 0.2899 3.8730 -3.9776 -2.2888 1.6769 -7.9496 10.9214 18.3286 0.1223 -8.9984 24.7990 3.8268 -3.0290 12.3124 3.5582 -0.0000 0.0000 0.0000 -86.4901 10.9001 35.0964 20.0891 -30.7495 -5.5768 -0.0000 -0.0000 20.2385 7.3215 -33.2533 -4.0300 -7.1250 0.0000 -0.0000 -13.8181 -2.6401 14.8712 -0.0000 0.0000 0.0000 84.3030 -15.6577 45.4141 -19.5521 30.0989 -5.3049 0.0000 0.0000 7.7087 9.7547 -54.2219 -7.9400 7.1250 -0.0000 -0.0000 -21.8348 11.5266 -161.5395
8.8311 15.1462 42.0722 -178.2430 -11.7574 180.0770 0.0000 0.0000 0.0000 -22.8721 -27.2329 -3.1066 2.9110 10.5495 30.7752 1.7040 2.8155 -25.8075 2.4469 -9.7408 -28.1414 0.0000 0.0000 0.0000 30.4191 17.2608 1.4968 -1.8388 -8.5220 24.3110 -0.3598 -26.4892 -38.9715 -1.4846 -7.6981 21.8008 3.6001 2.7835 6.3270 0.2818 4.0309 -4.1783 -2.2265 1.7576 -7.7166 10.7074 18.3132 0.4097 -8.9222 24.7723 3.3547 -3.0455 12.3136 3.3319 -0.0000 -0.0000 0.0000 -86.5089 10.8978 35.8360 20.4961 -31.2354 -5.7864 -0.0000 -0.0000 19.2779 6.0923 -29.7313 -3.0300 -7.1250 0.0000 -0.0000 -14.3509 0.9113 14.5884 -0.0000 -0.0000 0.0000 83.8807 -16.4264 48.9090 -18.7533 29.1109 -4.9102 0.0000 0.0000 16.5893 -5.1254 -54.1425 4.1578 7.1250 -0.0000 -0.0000 -16.0486 9.0164 -166.0929
8.8344 15.1461 42.0767 -178.2840 -11.9878 179.9990 0.0000 0.0000 0.0000 -22.9129 -27.1924 -3.0403 2.8965 10.5256 30.6960 1.7013 2.5860 -25.6866 2.3506 -9.5610 -27.5665 0.0000 0.0000 0.0000 30.4698 17.2671 1.6632 -1.8317 -8.5064 24.2632 -0.3774 -26.6222 -39.2245 -1.4841 -7.6968 21.7970 3.5456 2.7180 6.3930 0.2747 3.9425 -4.1010 -2.1945 1.7207 -7.6801 10.3287 18.3789 0.3251 -8.5378 24.8274 3.2301 -2.9037 12.3454 3.2171 -0.0000 0.0000 0.0000 -86.4206 10.7870 35.8914 20.5333 -31.2795 -5.8057 -0.0000 -0.0000 18.8777 5.5835 -29.7423 -2.7766 -7.1250 0.0000 -0.0000 -14.6411 0.9539 14.8925 -0.0000 0.0000 0.0000 83.8465 -16.3220 48.7878 -18.8221 29.1970 -4.9438 0.0000 0.0000 16.8969 -5.4757 -54.0819 4.4392 7.1250 -0.0000 -0.0000 -15.9098 9.0023 -166.2189
8.8361 15.1492 42.0793 -178.3310 -12.0368 180.1170 0.0000 0.0000 0.0000 -22.8886 -27.2056 -3.1828 2.8853 10.5071 30.6349 1.6760 2.7163 -25.5615 2.4753 -9.7928 -28.3084 0.0000 0.0000 0.0000 30.3874 17.3028 1.5469 -1.8282 -8.4988 24.2395 -0.3910 -26.5864 -39.2451 -1.5690 -7.9040 22.4228 3.4931 2.7159 6.2899 0.2559 3.9280 -4.1122 -2.1777 1.7167 -7.6348 10.2952 18.3799 0.3254 -8.5825 24.8281 3.1709 -2.9151 12.3449 3.2009 -0.0000 -0.0000 0.0000 -86.3398 10.7981 35.9610 20.3677 -31.0827 -5.7200 -0.0000 -0.0000 19.5966 7.4139 -29.7721 -3.6969 -7.1250 0.0000 -0.0000 -13.5977 0.7263 13.8208 -0.0000 -0.0000 0.0000 83.8397 -16.2624 48.7492 -18.9334 29.3358 -4.9982 0.0000 0.0000 16.3497 -4.5688 -54.6277 3.7281 7.1250 -0.0000 -0.0000 -16.2685 8.6721 -165.7687
8.8379 15.1476 42.0829 -178.3490 -12.0729 180.1090 0.0000 0.0000 0.0000 -22.9002 -27.1824 -3.2047 2.8828 10.5029 30.6211 1.6630 3.0031 -25.5968 2.8297 -10.4141 -30.3283 0.0000 0.0000 0.0000 30.3847 17.3804 1.5712 -1.8291 -8.5007 24.2454 -0.4363 -26.5516 -39.4183 -1.6908 -8.1899 23.2925 3.4502 2.7081 6.3384 0.2637 3.9165 -4.1254 -2.1474 1.7121 -7.6812 10.2659 18.3682 0.3200 -8.5356 24.8129 3.2463 -2.8971 12.3371 3.2140 0.0000 0.0000 0.0000 -86.3395 10.8507 35.8909 20.3835 -31.1016 -5.7281 -0.0000 -0.0000 19.4345 6.7967 -29.2454 -3.3324 -7.1250 0.0000 -0.0000 -13.9324 1.3064 14.0355 0.0000 0.0000 0.0000 83.7700 -16.3433 49.0471 -18.8474 29.2286 -4.9561 0.0000 0.0000 16.9122 -5.4834 -54.2727 4.4561 7.1250 -0.0000 -0.0000 -15.9085 8.8215 -166.1603
8.8395 15.1486 42.0887 -178.3810 -12.1274 180.2290 0.0000 0.0000 0.0000 -22.9125 -27.4277 -3.2551 2.8828 10.5029 30.6212 1.6538 3.1710 -25.6078 2.7664 -10.3070 -29.9768 0.0000 0.0000 0.0000 30.3079 17.4326 1.4333 -1.8291 -8.5006 24.2452 -0.4508 -26.5458 -39.4804 -1.7397 -8.3014 23.6333 3.4257 2.7001 6.2684 0.2438 3.8982 -4.1549 -2.1493 1.7031 -7.6734 9.9942 18.3666 0.1977 -8.2460 24.7885 3.2907 -2.7849 12.3252 3.1747 -0.0000 -0.0000 0.0000 -86.3511 10.7902 35.6902 20.4919 -31.2305 -5.7842 -0.0000 -0.0000 18.7052 4.9421 -28.8361 -2.3882 -7.1250 0.0000 -0.0000 -14.9867 1.8931 15.0115 -0.0000 -0.0000 0.0000 83.7728 -16.3471 49.0958 -18.8275 29.2037 -4.9464 0.0000 0.0000 17.1623 -5.6445 -53.8944 4.5655 7.1250 -0.0000 -0.0000 -15.8412 9.1439 -166.3301
8.8390 15.1478 42.0925 -178.3880 -12.1041 180.2530 0.0000 0.0000 0.0000 -22.9698 -27.7012 -3.1651 2.8885 10.5123 30.6522 1.6524 3.1376 -25.5821 2.3825 -9.6211 -27.7583 0.0000 0.0000 0.0000 30.2460 17.3184 1.3459 -1.8275 -8.4972 24.2347 -0.4465 -26.4890 -39.3895 -1.7076 -8.2284 23.4100 3.4775 2.7141 6.2548 0.2114 3.9196 -4.1363 -2.2134 1.7115 -7.6387 9.4719 18.3579 0.0043 -7.7825 24.7367 3.2270 -2.6062 12.3006 3.0596 0.0000 0.0000 0.0000 -86.3241 10.7590 35.6179 20.2904 -30.9907 -5.6801 -0.0000 -0.0000 19.5772 7.0428 -29.4366 -3.4745 -7.1250 0.0000 -0.0000 -13.7976 1.0940 13.9446 0.0000 0.0000 0.0000 83.8219 -16.2986 49.0990 -18.7737 29.1365 -4.9202 0.0000 0.0000 17.4264 -5.6149 -53.7827 4.5351 7.1250 -0.0000 -0.0000 -15.8518 9.2548 -166.3568
8.8378 15.1483 42.0944 -178.3840 -11.8879 180.2710 0.0000 0.0000 0.0000 -22.8180 -27.1841 -3.4730 2.8951 10.5233 30.6885 1.6849 2.6264 -25.5861 2.3014 -9.4674 -27.2687 0.0000 0.0000 0.0000 30.1875 17.2722 1.2828 -1.8255 -8.4928 24.2213 -0.4376 -26.3567 -39.1819 -1.6040 -7.9873 22.6755 3.4993 2.7867 6.2232 0.2111 4.0176 -4.1042 -2.2344 1.7608 -7.5785 9.1583 18.3719 -0.0567 -7.2635 24.7207 3.0040 -2.7226 12.3142 3.2136 -0.0000 -0.0000 0.0000 -86.3242 10.7275 35.5572 20.2220 -30.9088 -5.6449 -0.0000 -0.0000 19.9360 8.2106 -29.4846 -4.0623 -7.1250 0.0000 -0.0000 -13.1290 0.9139 13.2730 -0.0000 -0.0000 0.0000 83.8046 -16.2469 49.1601 -18.7689 29.1305 -4.9179 0.0000 0.0000 17.4713 -5.1983 -54.1499 4.2174 7.1250 -0.0000 -0.0000 -16.0201 8.9948 -166.1125
